<?xml version="1.0" encoding="utf-8"?>
<!-- Generator: Adobe Illustrator 18.1.0, SVG Export Plug-In . SVG Version: 6.00 Build 0)  -->
<svg version="1.1" xmlns="http://www.w3.org/2000/svg" xmlns:xlink="http://www.w3.org/1999/xlink" x="0px" y="0px"
	 viewBox="0 0 300 300" enable-background="new 0 0 300 300" xml:space="preserve">
<g id="Layer_1" display="none">
	<circle display="inline" cx="150.1" cy="150.8" r="150"/>
</g>
<g id="Layer_2">
	<path fill-rule="evenodd" clip-rule="evenodd" d="M150,300C67.3,300,0,232.7,0,150S67.3,0,150,0s150,67.3,150,150
		S232.7,300,150,300z M276.5,170.5c-4.4-1.4-39.7-11.9-79.8-5.5c16.8,46.1,23.6,83.6,24.9,91.4C250.3,237,270.8,206.2,276.5,170.5z
		 M200,268.1c-1.9-11.2-9.3-50.4-27.3-97.2c-0.3,0.1-0.6,0.2-0.8,0.3c-72.3,25.2-98.2,75.3-100.5,80c21.7,16.9,49,27,78.6,27
		C167.7,278.3,184.7,274.7,200,268.1z M54.8,235.9c2.9-5,38.1-63.2,104.1-84.5c1.7-0.5,3.4-1,5-1.5c-3.2-7.3-6.7-14.6-10.4-21.7
		c-64,19.1-126.1,18.3-131.7,18.2c0,1.3-0.1,2.6-0.1,3.9C21.9,183.1,34.4,213.1,54.8,235.9z M24.6,124c5.7,0.1,58.5,0.3,118.4-15.6
		c-21.2-37.7-44.1-69.5-47.5-74.1C59.7,51.2,32.9,84.2,24.6,124z M120,25.6c3.5,4.7,26.8,36.4,47.8,75c45.6-17.1,64.8-43,67.1-46.3
		c-22.6-20.1-52.4-32.3-84.9-32.3C139.7,22.1,129.6,23.3,120,25.6z M249.2,69.2c-2.7,3.7-24.2,31.2-71.5,50.5
		c3,6.1,5.8,12.3,8.5,18.6c0.9,2.2,1.9,4.4,2.8,6.6c42.6-5.4,85,3.2,89.2,4.1C277.8,118.7,267,91,249.2,69.2z"/>
</g>
</svg>
