<?xml version="1.0" encoding="utf-8"?>
<!-- Generator: Adobe Illustrator 18.1.0, SVG Export Plug-In . SVG Version: 6.00 Build 0)  -->
<svg version="1.1" id="Layer_1" xmlns="http://www.w3.org/2000/svg" xmlns:xlink="http://www.w3.org/1999/xlink" x="0px" y="0px"
	 viewBox="0 0 300 300" enable-background="new 0 0 300 300" xml:space="preserve">
<path fill-rule="evenodd" clip-rule="evenodd" d="M150.4,0C67.8,0,0.8,67,0.8,149.6c0,66.1,42.9,122.2,102.3,141.9
	c7.5,1.4,10.2-3.2,10.2-7.2c0-3.6-0.1-13-0.2-25.4c-41.6,9-50.4-20.1-50.4-20.1c-6.8-17.3-16.6-21.9-16.6-21.9
	c-13.6-9.3,1-9.1,1-9.1c15,1.1,22.9,15.4,22.9,15.4c13.3,22.9,35,16.3,43.5,12.4c1.4-9.7,5.2-16.3,9.5-20
	C89.9,211.9,55,199.1,55,141.8c0-16.3,5.8-29.7,15.4-40.1c-1.5-3.8-6.7-19,1.5-39.6c0,0,12.6-4,41.1,15.3c11.9-3.3,24.7-5,37.4-5
	c12.7,0.1,25.5,1.7,37.4,5C216.4,58,229,62,229,62c8.2,20.6,3,35.8,1.5,39.6c9.6,10.5,15.4,23.8,15.4,40.1c0,57.5-35,70.1-68.3,73.8
	c5.4,4.6,10.2,13.7,10.2,27.7c0,20-0.2,36.1-0.2,41c0,4,2.7,8.7,10.3,7.2C257.2,271.7,300,215.7,300,149.6C300,67,233,0,150.4,0z"/>
</svg>
