<?xml version="1.0" encoding="utf-8"?>
<!-- Generator: Adobe Illustrator 18.1.0, SVG Export Plug-In . SVG Version: 6.00 Build 0)  -->
<svg version="1.1" id="Layer_1" xmlns="http://www.w3.org/2000/svg" xmlns:xlink="http://www.w3.org/1999/xlink" x="0px" y="0px"
	 viewBox="0 0 300 300" enable-background="new 0 0 300 300" xml:space="preserve">
<g>
	<path d="M192.4,114.6c7,0.1,13.9,0.1,20.9,0c4.4-0.1,7.1-3.1,7.2-7.5c0-6.7,0-13.5,0-20.2c0-4.5-2.9-7.7-7.4-7.8
		c-3.3,0-6.7-0.2-10-0.2c-3.3,0-6.7,0-10,0c-0.1,0-0.2,0.2-0.4,0.2c-4.4,0.1-7.3,3-7.4,7.3c-0.1,6.9-0.1,13.9,0,20.8
		C185.3,111.7,188.1,114.6,192.4,114.6z"/>
	<path d="M150.1,185c19.5,0,35.2-15.9,35.1-35.3c-0.1-19.5-15.9-35.2-35.3-35.1c-19.5,0.1-35.1,15.8-35.1,35.2
		C114.9,169.3,130.7,185,150.1,185z"/>
	<path d="M150.1-0.2c-82.8,0-150,67.2-150,150s67.2,150,150,150s150-67.2,150-150S232.9-0.2,150.1-0.2z M241.5,220.4
		c0,11.4-9.4,20.8-20.8,20.8c-47.1,0-94.2,0-141.3,0c-9.4,0-17.5-6.6-19.9-15.6c-0.3-1-0.5-1.9-0.5-2.9c0-48.6,0-97.2,0-145.8
		c0-0.4,0.1-0.8,0.2-1.2c1.9-8.9,7.2-14.6,15.9-17c0.7-0.2,1.4,0.3,2.1-0.7c48.6,0,97.2,0,145.8,0c0.4,0,0.8,0.5,1.2,0.5
		c10,1.8,17.4,10.5,17.4,20.7C241.5,126.3,241.5,173.4,241.5,220.4z"/>
	<path d="M194.6,184.2c-11.1,14.3-26,21.7-44.1,21.9c-15.8,0.2-29.4-5.4-40.4-16.7c-14.6-15-19-33.4-14.6-53.4c-5.3,0-10.5,0-15.7,0
		c0,0-0.1,0.9-0.1,1.3c0,25.2,0,50.3,0,75.5c0,4.5,3,7.4,7.6,7.4c41.8,0,83.6,0,125.4,0c4.9,0,7.5-2.9,7.5-7.8
		c0-24.9-0.2-49.8-0.2-74.7c0-0.6,0-1.7,0-1.7c-5,0-10,0-15.4,0C208.6,154,205.7,169.9,194.6,184.2z"/>
</g>
</svg>
