<?xml version="1.0" encoding="utf-8"?>
<!-- Generator: Adobe Illustrator 18.1.0, SVG Export Plug-In . SVG Version: 6.00 Build 0)  -->
<svg version="1.1" xmlns="http://www.w3.org/2000/svg" xmlns:xlink="http://www.w3.org/1999/xlink" x="0px" y="0px"
	 viewBox="0 0 300 300" enable-background="new 0 0 300 300" xml:space="preserve">
<g id="Layer_1">
	<circle cx="150.1" cy="150.8" r="150"/>
	<path fill="#FFFFFF" d="M256.6,98.8c-7.5,3.3-15.5,5.6-24,6.6c8.6-5.2,15.2-13.4,18.4-23.1c-8.1,4.8-17,8.3-26.5,10.1
		c-7.6-8.1-18.5-13.2-30.5-13.2c-23.1,0-41.8,18.7-41.8,41.8c0,3.3,0.4,6.5,1.1,9.5c-34.7-1.7-65.5-18.4-86.1-43.6
		c-3.6,6.2-5.7,13.3-5.7,21c0,14.5,7.4,27.3,18.6,34.8c-6.8-0.2-13.3-2.1-18.9-5.2c0,0.2,0,0.3,0,0.5c0,20.2,14.4,37.1,33.5,40.9
		c-3.5,1-7.2,1.5-11,1.5c-2.7,0-5.3-0.3-7.9-0.7c5.3,16.6,20.7,28.7,39,29c-14.3,11.2-32.3,17.9-51.9,17.9c-3.4,0-6.7-0.2-10-0.6
		c18.5,11.8,40.4,18.8,64,18.8c76.8,0,118.8-63.6,118.8-118.8c0-1.8,0-3.6-0.1-5.4C243.9,114.6,251,107.2,256.6,98.8z"/>
</g>
<g id="Layer_2">
</g>
</svg>
